<mxfile host="app.diagrams.net" modified="2022-09-20T11:10:55.324Z" agent="5.0 (Windows NT 10.0; Win64; x64) AppleWebKit/537.36 (KHTML, like Gecko) Chrome/105.0.0.0 Safari/537.36" etag="uNvVFfo2GrbHms6Q37aZ" version="20.3.3" type="github">
  <diagram id="6bENMwriaooqlIrJhQp3" name="PÃ¡gina-1">
    <mxGraphModel dx="1089" dy="479" grid="1" gridSize="10" guides="1" tooltips="1" connect="1" arrows="1" fold="1" page="1" pageScale="1" pageWidth="827" pageHeight="1169" math="0" shadow="0">
      <root>
        <mxCell id="0" />
        <mxCell id="1" parent="0" />
        <mxCell id="JBpUQJP8KG_VXmximz5Z-5" value="" style="edgeStyle=orthogonalEdgeStyle;rounded=0;orthogonalLoop=1;jettySize=auto;html=1;fontFamily=Times New Roman;fontSize=18;" edge="1" parent="1" source="JBpUQJP8KG_VXmximz5Z-1" target="JBpUQJP8KG_VXmximz5Z-2">
          <mxGeometry relative="1" as="geometry" />
        </mxCell>
        <mxCell id="JBpUQJP8KG_VXmximz5Z-1" value="&lt;font size=&quot;3&quot; face=&quot;Times New Roman&quot;&gt;INIT&lt;/font&gt;" style="ellipse;whiteSpace=wrap;html=1;" vertex="1" parent="1">
          <mxGeometry x="340" y="40" width="120" height="80" as="geometry" />
        </mxCell>
        <mxCell id="JBpUQJP8KG_VXmximz5Z-6" value="" style="edgeStyle=orthogonalEdgeStyle;rounded=0;orthogonalLoop=1;jettySize=auto;html=1;fontFamily=Times New Roman;fontSize=18;" edge="1" parent="1" source="JBpUQJP8KG_VXmximz5Z-2" target="JBpUQJP8KG_VXmximz5Z-3">
          <mxGeometry relative="1" as="geometry" />
        </mxCell>
        <mxCell id="JBpUQJP8KG_VXmximz5Z-2" value="&lt;font style=&quot;font-size: 18px;&quot;&gt;Escribir (&quot;Introduce dinero&quot;)&lt;/font&gt;" style="shape=parallelogram;perimeter=parallelogramPerimeter;whiteSpace=wrap;html=1;fixedSize=1;fontFamily=Times New Roman;fontSize=24;" vertex="1" parent="1">
          <mxGeometry x="300" y="160" width="200" height="60" as="geometry" />
        </mxCell>
        <mxCell id="JBpUQJP8KG_VXmximz5Z-7" value="" style="edgeStyle=orthogonalEdgeStyle;rounded=0;orthogonalLoop=1;jettySize=auto;html=1;fontFamily=Times New Roman;fontSize=18;" edge="1" parent="1" source="JBpUQJP8KG_VXmximz5Z-3" target="JBpUQJP8KG_VXmximz5Z-4">
          <mxGeometry relative="1" as="geometry" />
        </mxCell>
        <mxCell id="JBpUQJP8KG_VXmximz5Z-3" value="&lt;font style=&quot;font-size: 18px;&quot;&gt;Leer (Dinero &lt;br&gt;introducido)&lt;/font&gt;" style="shape=parallelogram;perimeter=parallelogramPerimeter;whiteSpace=wrap;html=1;fixedSize=1;fontFamily=Times New Roman;fontSize=24;" vertex="1" parent="1">
          <mxGeometry x="300" y="280" width="200" height="60" as="geometry" />
        </mxCell>
        <mxCell id="JBpUQJP8KG_VXmximz5Z-11" style="edgeStyle=orthogonalEdgeStyle;rounded=0;orthogonalLoop=1;jettySize=auto;html=1;entryX=0.102;entryY=-0.083;entryDx=0;entryDy=0;entryPerimeter=0;fontFamily=Times New Roman;fontSize=18;" edge="1" parent="1" source="JBpUQJP8KG_VXmximz5Z-4" target="JBpUQJP8KG_VXmximz5Z-8">
          <mxGeometry relative="1" as="geometry" />
        </mxCell>
        <mxCell id="JBpUQJP8KG_VXmximz5Z-4" value="IF" style="rhombus;whiteSpace=wrap;html=1;fontFamily=Times New Roman;fontSize=24;" vertex="1" parent="1">
          <mxGeometry x="320" y="380" width="160" height="80" as="geometry" />
        </mxCell>
        <mxCell id="JBpUQJP8KG_VXmximz5Z-13" value="" style="edgeStyle=orthogonalEdgeStyle;rounded=0;orthogonalLoop=1;jettySize=auto;html=1;fontFamily=Times New Roman;fontSize=18;" edge="1" parent="1" source="JBpUQJP8KG_VXmximz5Z-8" target="JBpUQJP8KG_VXmximz5Z-12">
          <mxGeometry relative="1" as="geometry" />
        </mxCell>
        <mxCell id="JBpUQJP8KG_VXmximz5Z-8" value="&lt;span style=&quot;font-size: 18px;&quot;&gt;Entregar botella&lt;/span&gt;" style="shape=parallelogram;perimeter=parallelogramPerimeter;whiteSpace=wrap;html=1;fixedSize=1;fontFamily=Times New Roman;fontSize=24;" vertex="1" parent="1">
          <mxGeometry x="500" y="480" width="200" height="60" as="geometry" />
        </mxCell>
        <mxCell id="JBpUQJP8KG_VXmximz5Z-17" value="" style="edgeStyle=orthogonalEdgeStyle;rounded=0;orthogonalLoop=1;jettySize=auto;html=1;fontFamily=Times New Roman;fontSize=18;" edge="1" parent="1" source="JBpUQJP8KG_VXmximz5Z-12" target="JBpUQJP8KG_VXmximz5Z-14">
          <mxGeometry relative="1" as="geometry" />
        </mxCell>
        <mxCell id="JBpUQJP8KG_VXmximz5Z-12" value="Cambio= dinero introducido - 2" style="rounded=0;whiteSpace=wrap;html=1;fontFamily=Times New Roman;fontSize=18;" vertex="1" parent="1">
          <mxGeometry x="515" y="600" width="170" height="60" as="geometry" />
        </mxCell>
        <mxCell id="JBpUQJP8KG_VXmximz5Z-18" value="" style="edgeStyle=orthogonalEdgeStyle;rounded=0;orthogonalLoop=1;jettySize=auto;html=1;fontFamily=Times New Roman;fontSize=18;" edge="1" parent="1" source="JBpUQJP8KG_VXmximz5Z-14" target="JBpUQJP8KG_VXmximz5Z-15">
          <mxGeometry relative="1" as="geometry" />
        </mxCell>
        <mxCell id="JBpUQJP8KG_VXmximz5Z-14" value="Cambio &amp;gt;= 500" style="rhombus;whiteSpace=wrap;html=1;fontFamily=Times New Roman;fontSize=18;" vertex="1" parent="1">
          <mxGeometry x="520" y="720" width="160" height="80" as="geometry" />
        </mxCell>
        <mxCell id="JBpUQJP8KG_VXmximz5Z-19" value="" style="edgeStyle=orthogonalEdgeStyle;rounded=0;orthogonalLoop=1;jettySize=auto;html=1;fontFamily=Times New Roman;fontSize=18;" edge="1" parent="1" source="JBpUQJP8KG_VXmximz5Z-15" target="JBpUQJP8KG_VXmximz5Z-16">
          <mxGeometry relative="1" as="geometry" />
        </mxCell>
        <mxCell id="JBpUQJP8KG_VXmximz5Z-15" value="&lt;span style=&quot;font-size: 18px;&quot;&gt;Entrego 500&lt;/span&gt;" style="shape=parallelogram;perimeter=parallelogramPerimeter;whiteSpace=wrap;html=1;fixedSize=1;fontFamily=Times New Roman;fontSize=24;" vertex="1" parent="1">
          <mxGeometry x="500" y="840" width="200" height="60" as="geometry" />
        </mxCell>
        <mxCell id="JBpUQJP8KG_VXmximz5Z-16" value="Cambio= cambio - 500" style="rounded=0;whiteSpace=wrap;html=1;fontFamily=Times New Roman;fontSize=18;" vertex="1" parent="1">
          <mxGeometry x="515" y="960" width="170" height="60" as="geometry" />
        </mxCell>
        <mxCell id="JBpUQJP8KG_VXmximz5Z-24" value="" style="edgeStyle=orthogonalEdgeStyle;rounded=0;orthogonalLoop=1;jettySize=auto;html=1;fontFamily=Times New Roman;fontSize=18;" edge="1" parent="1" source="JBpUQJP8KG_VXmximz5Z-21" target="JBpUQJP8KG_VXmximz5Z-22">
          <mxGeometry relative="1" as="geometry" />
        </mxCell>
        <mxCell id="JBpUQJP8KG_VXmximz5Z-21" value="Cambio &amp;gt;=200" style="rhombus;whiteSpace=wrap;html=1;fontFamily=Times New Roman;fontSize=18;" vertex="1" parent="1">
          <mxGeometry x="520" y="1080" width="160" height="80" as="geometry" />
        </mxCell>
        <mxCell id="JBpUQJP8KG_VXmximz5Z-25" value="" style="edgeStyle=orthogonalEdgeStyle;rounded=0;orthogonalLoop=1;jettySize=auto;html=1;fontFamily=Times New Roman;fontSize=18;" edge="1" parent="1" source="JBpUQJP8KG_VXmximz5Z-22" target="JBpUQJP8KG_VXmximz5Z-23">
          <mxGeometry relative="1" as="geometry" />
        </mxCell>
        <mxCell id="JBpUQJP8KG_VXmximz5Z-22" value="&lt;span style=&quot;font-size: 18px;&quot;&gt;Entrego 200&lt;/span&gt;" style="shape=parallelogram;perimeter=parallelogramPerimeter;whiteSpace=wrap;html=1;fixedSize=1;fontFamily=Times New Roman;fontSize=24;" vertex="1" parent="1">
          <mxGeometry x="500" y="1200" width="200" height="60" as="geometry" />
        </mxCell>
        <mxCell id="JBpUQJP8KG_VXmximz5Z-23" value="Cambio= cambio - 200" style="rounded=0;whiteSpace=wrap;html=1;fontFamily=Times New Roman;fontSize=18;" vertex="1" parent="1">
          <mxGeometry x="515" y="1320" width="170" height="60" as="geometry" />
        </mxCell>
      </root>
    </mxGraphModel>
  </diagram>
</mxfile>
